<?xml version="1.0" encoding="utf-8"?>
<!-- Generator: Adobe Illustrator 18.0.0, SVG Export Plug-In . SVG Version: 6.00 Build 0)  -->
<!DOCTYPE svg PUBLIC "-//W3C//DTD SVG 1.1//EN" "http://www.w3.org/Graphics/SVG/1.1/DTD/svg11.dtd">
<svg version="1.1" id="Layer_1" xmlns="http://www.w3.org/2000/svg" xmlns:xlink="http://www.w3.org/1999/xlink" x="0px" y="0px"
	 viewBox="0 0 612 792" enable-background="new 0 0 612 792" xml:space="preserve">
<path id="email-10-icon" d="M307.2,149.2c65.6,0,127.3,25.6,173.7,72s72,108.1,72,173.7s-25.6,127.3-72,173.7
	c-46.4,46.4-108.1,72-173.7,72s-127.3-25.6-173.7-72c-46.4-46.4-72-108.1-72-173.7s25.6-127.3,72-173.7S241.6,149.2,307.2,149.2
	 M307.2,90C138.9,90,2.4,226.5,2.4,394.8s136.5,304.8,304.8,304.8S612,563.1,612,394.8S475.5,90,307.2,90L307.2,90z M244.2,383.4
	l-91-69.9v160.9L244.2,383.4z M463.3,281.1h-309l154.4,118.6L463.3,281.1z M351.9,399.8l-43.3,33.2l-43.3-33.3L153.6,511.5h309.9
	L351.9,399.8z M373.1,383.6l91.1,91.1V313.8L373.1,383.6z"/>
</svg>
