<?xml version="1.0" encoding="utf-8"?>
<!-- Generator: Adobe Illustrator 18.0.0, SVG Export Plug-In . SVG Version: 6.00 Build 0)  -->
<!DOCTYPE svg PUBLIC "-//W3C//DTD SVG 1.1//EN" "http://www.w3.org/Graphics/SVG/1.1/DTD/svg11.dtd">
<svg version="1.1" id="Layer_1" xmlns="http://www.w3.org/2000/svg" xmlns:xlink="http://www.w3.org/1999/xlink" x="0px" y="0px"
	 viewBox="0 0 612 792" enable-background="new 0 0 612 792" xml:space="preserve">
<path id="facebook-circle-outline-icon" fill="#FFFFFF" d="M306,149.4c65.9,0,127.8,25.7,174.4,72.2
	c46.6,46.6,72.2,108.5,72.2,174.4s-25.7,127.8-72.2,174.4C433.8,617,371.9,642.6,306,642.6s-127.8-25.7-174.4-72.2
	C85,523.8,59.4,461.9,59.4,396s25.7-127.8,72.2-174.4C178.2,175.1,240.1,149.4,306,149.4 M306,90C137,90,0,227,0,396
	s137,306,306,306s306-137,306-306S475,90,306,90L306,90z M263.9,339.7H229v57h34.9v167.5h67.2V396H378l5-56.3h-51.9c0,0,0-21,0-32
	c0-13.3,2.6-18.5,15.5-18.5c10.3,0,36.3,0,36.3,0v-58.5c0,0-38.4,0-46.5,0c-50,0-72.6,22-72.6,64.2
	C263.9,331.6,263.9,339.7,263.9,339.7z"/>
</svg>
