<?xml version="1.0" encoding="utf-8"?>
<!-- Generator: Adobe Illustrator 18.0.0, SVG Export Plug-In . SVG Version: 6.00 Build 0)  -->
<!DOCTYPE svg PUBLIC "-//W3C//DTD SVG 1.1//EN" "http://www.w3.org/Graphics/SVG/1.1/DTD/svg11.dtd">
<svg version="1.1" id="Layer_1" xmlns="http://www.w3.org/2000/svg" xmlns:xlink="http://www.w3.org/1999/xlink" x="0px" y="0px"
	 viewBox="0 0 612 792" enable-background="new 0 0 612 792" xml:space="preserve">
<path id="flickr-circle-outline-icon" d="M307.2,151.6c65.6,0,127.3,25.6,173.7,72s72,108.1,72,173.7s-25.6,127.3-72,173.7
	c-46.4,46.4-108.1,72-173.7,72s-127.3-25.6-173.7-72c-46.4-46.4-72-108.1-72-173.7s25.6-127.3,72-173.7S241.6,151.6,307.2,151.6
	 M307.2,92.4C138.9,92.4,2.4,228.9,2.4,397.2S138.9,702,307.2,702S612,565.5,612,397.2S475.5,92.4,307.2,92.4L307.2,92.4z
	 M388.7,305.9c-35.6,0-66.5,20.3-81.5,50.1c-15.1-29.8-45.9-50.1-81.5-50.1c-50.4,0-91.3,40.9-91.3,91.3s40.9,91.3,91.3,91.3
	c35.6,0,66.5-20.3,81.5-50.1c15.1,29.8,45.9,50.1,81.5,50.1c50.4,0,91.3-40.9,91.3-91.3S439.2,305.9,388.7,305.9z M388.7,464.1
	c-36.9,0-66.9-30-66.9-66.9s30-66.9,66.9-66.9s66.9,30,66.9,66.9S425.7,464.1,388.7,464.1z"/>
</svg>
