<?xml version="1.0" encoding="utf-8"?>
<!-- Generator: Adobe Illustrator 18.0.0, SVG Export Plug-In . SVG Version: 6.00 Build 0)  -->
<!DOCTYPE svg PUBLIC "-//W3C//DTD SVG 1.1//EN" "http://www.w3.org/Graphics/SVG/1.1/DTD/svg11.dtd">
<svg version="1.1" id="Layer_1" xmlns="http://www.w3.org/2000/svg" xmlns:xlink="http://www.w3.org/1999/xlink" x="0px" y="0px"
	 viewBox="0 0 200 50" enable-background="new 0 0 200 50" xml:space="preserve">
<g>
	<path d="M24.8,17.7h-3.9c1.4,1.2,2.1,2.7,2.1,4.4c0,0.9-0.2,1.8-0.6,2.7c-0.4,0.9-1,1.6-1.7,2.3c-0.8,0.7-1.7,1.2-2.8,1.6
		c-1.1,0.4-2.4,0.7-3.8,0.8c-1.8,0.1-2.8,0.6-2.8,1.5c0,0.4,0.1,0.6,0.4,0.8s0.6,0.3,1.1,0.4c0.5,0.1,1.4,0.2,2.6,0.3
		c1.4,0.1,2.6,0.3,3.8,0.6c1.2,0.3,2.3,0.9,3.3,1.9c1,0.9,1.5,2.3,1.5,4.1c0,1.4-0.4,2.6-1.1,3.7c-0.8,1.1-2,1.9-3.7,2.5
		c-1.7,0.6-3.9,0.9-6.7,0.9c-4,0-7-0.5-8.8-1.6s-2.8-2.5-2.8-4.3c0-0.5,0.1-1,0.4-1.7c0.2-0.6,0.8-1.2,1.5-1.8
		c0.8-0.6,1.9-1,3.4-1.2c-0.5-0.2-1-0.6-1.4-1.1c-0.4-0.6-0.6-1.1-0.6-1.7c0-0.8,0.3-1.6,0.8-2.3s1.4-1.3,2.6-1.5
		c-1.7-0.4-3.1-1.3-4.4-2.5s-1.8-2.8-1.8-4.8c0-1.5,0.3-2.8,0.9-3.9s1.4-2,2.4-2.7s2.2-1.2,3.5-1.5c1.3-0.3,2.8-0.5,4.4-0.5h12.4
		V17.7z M17.6,39.6c0-1-0.5-1.6-1.6-1.9s-2.1-0.4-3.3-0.4c-1.8,0-3.2,0.2-4,0.6c-0.8,0.4-1.2,1-1.2,1.9c0,1.7,1.7,2.5,5.1,2.5
		c1.5,0,2.7-0.2,3.6-0.7C17.1,41.2,17.6,40.5,17.6,39.6z M16,21.5c0-1.1-0.4-2-1.2-2.7c-0.8-0.7-1.6-1-2.6-1c-1.2,0-2.2,0.4-2.9,1.2
		s-1.1,1.7-1.1,2.6c0,0.6,0.2,1.2,0.5,1.8c0.3,0.5,0.7,1,1.3,1.3c0.6,0.3,1.2,0.5,2,0.5c1.2,0,2.1-0.4,2.9-1.1
		C15.6,23.4,16,22.5,16,21.5z"/>
	<path d="M45.3,26.1H29.5c0.3,1.4,1.1,2.5,2.3,3.4c1.2,0.9,2.6,1.3,4.1,1.3c2.7,0,5.7-0.8,8.9-2.3v4.9c-1.2,0.6-2.6,1.2-4.2,1.6
		c-1.7,0.5-3.8,0.7-6.3,0.7c-2.8,0-5.1-0.5-7.1-1.5c-1.9-1-3.4-2.4-4.4-4.2c-1-1.8-1.4-3.8-1.4-6c0-2.2,0.5-4.2,1.4-5.9
		c1-1.7,2.4-3.1,4.4-4.1s4.3-1.5,7.1-1.5c1.8,0,3.6,0.4,5.3,1.2s3.1,2.1,4.2,3.9s1.6,4.1,1.6,6.9V26.1z M37.8,22.1
		c0-1.4-0.4-2.6-1.1-3.5c-0.7-0.9-1.7-1.3-3.1-1.3c-1.3,0-2.4,0.4-3.2,1.3s-1.2,2-1.2,3.4H37.8z"/>
	<path d="M66.9,26.1H51c0.3,1.4,1.1,2.5,2.3,3.4c1.2,0.9,2.6,1.3,4.1,1.3c2.7,0,5.7-0.8,8.9-2.3v4.9c-1.2,0.6-2.6,1.2-4.2,1.6
		c-1.7,0.5-3.8,0.7-6.3,0.7c-2.8,0-5.1-0.5-7.1-1.5c-1.9-1-3.4-2.4-4.4-4.2c-1-1.8-1.4-3.8-1.4-6c0-2.2,0.5-4.2,1.4-5.9
		c1-1.7,2.4-3.1,4.4-4.1c1.9-1,4.3-1.5,7.1-1.5c1.8,0,3.6,0.4,5.3,1.2c1.7,0.8,3.1,2.1,4.2,3.9c1.1,1.8,1.6,4.1,1.6,6.9V26.1z
		 M59.4,22.1c0-1.4-0.4-2.6-1.1-3.5c-0.7-0.9-1.7-1.3-3.1-1.3c-1.3,0-2.4,0.4-3.2,1.3c-0.8,0.9-1.2,2-1.2,3.4H59.4z"/>
	<path d="M92.2,35.4H82.1l-8.7-10.7v10.7h-8.1V4.7h8.1v18l7.9-9.9h9.6l-8.8,10.5L92.2,35.4z"/>
	<path d="M113.3,35.4h-8V23.7c0-0.1,0-0.2,0-0.3s0-0.3,0-0.5c0-1.1-0.2-2.1-0.7-3c-0.5-0.9-1.3-1.4-2.6-1.4c-1,0-1.9,0.3-2.7,1
		c-0.8,0.7-1.5,1.5-2.2,2.5v13.2h-8V4.7h8v11.4c1.3-1.4,2.6-2.4,3.9-2.9c1.3-0.5,2.6-0.8,4.1-0.8c5.4,0,8.1,3,8.1,9.1V35.4z"/>
	<path d="M137.6,24.1c0,2.2-0.5,4.2-1.5,6s-2.4,3.1-4.4,4.2c-1.9,1-4.3,1.5-7.1,1.5s-5.2-0.5-7.1-1.5c-1.9-1-3.4-2.4-4.4-4.2
		s-1.4-3.8-1.4-6c0-1.7,0.3-3.2,0.8-4.6c0.5-1.4,1.4-2.6,2.5-3.7s2.5-1.9,4.1-2.5c1.6-0.6,3.5-0.9,5.6-0.9c2.1,0,4,0.3,5.6,0.9
		c1.6,0.6,3,1.4,4.1,2.4c1.1,1,1.9,2.3,2.4,3.7S137.6,22.4,137.6,24.1z M129.2,24.1c0-1.8-0.4-3.2-1.2-4.2c-0.8-1-1.9-1.5-3.4-1.5
		c-1.5,0-2.6,0.5-3.4,1.5c-0.8,1-1.2,2.4-1.2,4.2c0,1.8,0.4,3.2,1.2,4.2c0.8,1,1.9,1.5,3.3,1.5c1.5,0,2.6-0.5,3.4-1.5
		C128.8,27.3,129.2,25.9,129.2,24.1z"/>
	<path d="M160,35.4h-8v-3.2c-1.1,1.2-2.3,2.1-3.5,2.7c-1.2,0.6-2.7,0.9-4.5,0.9c-3.4,0-5.6-1-6.6-3c-1-2-1.5-4.2-1.5-6.7V12.9h8
		v12.2c0,1.2,0.2,2.3,0.6,3.2c0.4,0.9,1.3,1.4,2.7,1.4c1.2,0,2.1-0.3,2.8-1s1.4-1.5,2.1-2.5V12.9h8V35.4z"/>
	<path d="M177.3,28.8c0,2.1-0.8,3.7-2.3,5c-1.5,1.3-3.8,1.9-6.7,1.9c-1.7,0-3.2-0.2-4.4-0.5s-2.7-0.7-4.3-1.3v-5.7
		c1.3,0.8,2.5,1.4,3.5,1.7c1,0.4,2.1,0.6,3.3,0.6c2,0,3-0.5,3-1.6c0-0.4-0.1-0.7-0.4-1c-0.3-0.3-0.8-0.6-1.5-1
		c-0.7-0.4-1.7-0.8-2.9-1.3c-1.5-0.6-2.7-1.5-3.8-2.6c-1-1.1-1.5-2.4-1.5-4c0-1.1,0.3-2.2,1-3.2s1.7-1.9,3.1-2.5c1.4-0.7,3.1-1,5-1
		c0.5,0,1.1,0,1.8,0.1c0.7,0.1,1.7,0.2,2.8,0.5c1.1,0.3,2.2,0.7,3.2,1.2v5.5c-0.5-0.3-0.9-0.5-1.2-0.7s-0.7-0.4-1.3-0.6
		c-0.5-0.2-1.2-0.4-1.9-0.6c-0.7-0.2-1.4-0.3-2.2-0.3c-0.9,0-1.5,0.2-1.9,0.5c-0.3,0.4-0.5,0.7-0.5,1.1c0,0.4,0.2,0.7,0.5,1
		c0.4,0.3,1.1,0.7,2.4,1.2c1.8,0.7,3.2,1.4,4.3,2.1c1.1,0.7,1.8,1.5,2.3,2.4C177.1,26.7,177.3,27.7,177.3,28.8z"/>
	<path d="M199.3,26.1h-15.9c0.3,1.4,1.1,2.5,2.3,3.4c1.2,0.9,2.6,1.3,4.1,1.3c2.7,0,5.7-0.8,8.9-2.3v4.9c-1.2,0.6-2.6,1.2-4.2,1.6
		c-1.7,0.5-3.8,0.7-6.3,0.7c-2.8,0-5.1-0.5-7.1-1.5c-1.9-1-3.4-2.4-4.4-4.2c-1-1.8-1.4-3.8-1.4-6c0-2.2,0.5-4.2,1.4-5.9
		c1-1.7,2.4-3.1,4.4-4.1s4.3-1.5,7.1-1.5c1.8,0,3.6,0.4,5.3,1.2c1.7,0.8,3.1,2.1,4.2,3.9c1.1,1.8,1.6,4.1,1.6,6.9V26.1z M191.8,22.1
		c0-1.4-0.4-2.6-1.1-3.5c-0.7-0.9-1.7-1.3-3.1-1.3c-1.3,0-2.4,0.4-3.2,1.3c-0.8,0.9-1.2,2-1.2,3.4H191.8z"/>
</g>
</svg>
