<?xml version="1.0" encoding="utf-8"?>
<!-- Generator: Adobe Illustrator 18.0.0, SVG Export Plug-In . SVG Version: 6.00 Build 0)  -->
<!DOCTYPE svg PUBLIC "-//W3C//DTD SVG 1.1//EN" "http://www.w3.org/Graphics/SVG/1.1/DTD/svg11.dtd">
<svg version="1.1" id="Layer_1" xmlns="http://www.w3.org/2000/svg" xmlns:xlink="http://www.w3.org/1999/xlink" x="0px" y="0px"
	 viewBox="0 0 612 792" enable-background="new 0 0 612 792" xml:space="preserve">
<path id="email-10-icon" display="none" d="M307.2,149.2c65.6,0,127.3,25.6,173.7,72s72,108.1,72,173.7s-25.6,127.3-72,173.7
	c-46.4,46.4-108.1,72-173.7,72s-127.3-25.6-173.7-72c-46.4-46.4-72-108.1-72-173.7s25.6-127.3,72-173.7S241.6,149.2,307.2,149.2
	 M307.2,90C138.9,90,2.4,226.5,2.4,394.8s136.5,304.8,304.8,304.8S612,563.1,612,394.8S475.5,90,307.2,90L307.2,90z M244.2,383.4
	l-91-69.9v160.9L244.2,383.4z M463.3,281.1h-309l154.4,118.6L463.3,281.1z M351.9,399.8l-43.3,33.2l-43.3-33.3L153.6,511.5h309.9
	L351.9,399.8z M373.1,383.6l91.1,91.1V313.8L373.1,383.6z"/>
<path id="instagram-circle-outline-icon" d="M304.8,148.4c65.6,0,127.3,25.5,173.7,71.9c46.4,46.4,71.9,108.1,71.9,173.7
	s-25.5,127.3-71.9,173.7c-46.4,46.4-108.1,71.9-173.7,71.9s-127.3-25.5-173.7-71.9C84.7,521.3,59.2,459.6,59.2,394
	s25.5-127.3,71.9-173.7C177.5,173.9,239.2,148.4,304.8,148.4 M304.8,89.2C136.5,89.2,0,225.7,0,394s136.5,304.8,304.8,304.8
	S609.6,562.3,609.6,394S473.1,89.2,304.8,89.2L304.8,89.2z M368.3,352.2h85.1v130.7c0,31.8-25.8,57.6-57.6,57.6H219.7
	c-31.8,0-57.6-25.8-57.6-57.6V352.2h84.7c-8.7,12.2-13.8,27.1-13.8,43.2c0,41.2,33.4,74.6,74.6,74.6c41.2,0,74.6-33.4,74.6-74.6
	C382.1,379.2,377,364.4,368.3,352.2z M453.4,305.2V343h-92.8c-13.5-13.7-32.3-22.3-53.1-22.3c-20.8,0-39.6,8.5-53.1,22.3h-92.4
	v-37.8c0-19.4,9.6-36.6,24.3-47v62.1h11.8v-68.5c2.7-1.1,5.5-2,8.3-2.6v71.1h11.8v-72.6c0.4,0,0.9,0,1.3,0h6.8v72.6h11.8v-72.6
	h157.5C427.6,247.6,453.4,273.4,453.4,305.2z M427.1,280.9c0-5.1-4.1-9.2-9.2-9.2h-31.2c-5.1,0-9.2,4.1-9.2,9.2v31.8
	c0,5.1,4.1,9.2,9.2,9.2h31.2c5.1,0,9.2-4.1,9.2-9.2L427.1,280.9L427.1,280.9z M250.1,395.3c0-17.2,7.6-32.6,19.6-43.2
	c4.2-3.7,9-6.8,14.1-9.1c7.2-3.3,15.2-5.1,23.7-5.1c8.4,0,16.5,1.8,23.7,5.1c5.2,2.3,9.9,5.4,14.1,9.1c12,10.5,19.6,26,19.6,43.2
	c0,31.7-25.8,57.4-57.4,57.4C275.9,452.8,250.1,427,250.1,395.3z M265.3,395.3c0,23.4,19,42.4,42.4,42.4c23.4,0,42.4-19,42.4-42.4
	c0-23.4-19-42.4-42.4-42.4S265.3,371.9,265.3,395.3z"/>
</svg>
