<?xml version="1.0" encoding="utf-8"?>
<!-- Generator: Adobe Illustrator 18.0.0, SVG Export Plug-In . SVG Version: 6.00 Build 0)  -->
<!DOCTYPE svg PUBLIC "-//W3C//DTD SVG 1.1//EN" "http://www.w3.org/Graphics/SVG/1.1/DTD/svg11.dtd">
<svg version="1.1" id="Layer_1" xmlns="http://www.w3.org/2000/svg" xmlns:xlink="http://www.w3.org/1999/xlink" x="0px" y="0px"
	 viewBox="0 0 612 792" enable-background="new 0 0 612 792" xml:space="preserve">
<path id="tumblr-circle-outline-icon" fill="#FFFFFF" d="M306.5,150.4c65.6,0,127.3,25.6,173.7,72s72,108.1,72,173.7
	s-25.6,127.3-72,173.7c-46.4,46.4-108.1,72-173.7,72s-127.3-25.6-173.7-72c-46.4-46.4-72-108.1-72-173.7s25.6-127.3,72-173.7
	S240.9,150.4,306.5,150.4 M306.5,91.2C138.2,91.2,1.7,227.7,1.7,396s136.5,304.8,304.8,304.8S611.3,564.3,611.3,396
	S474.9,91.2,306.5,91.2L306.5,91.2z M275,234.8c-2.2,17-5.9,30.8-11.5,41.8c-5.5,11-12.9,20.3-22.1,28.1s-20.2,13.9-33,18v46.7h36
	v115.1c0,14.9,1.6,26.4,4.7,34.3c3.1,7.9,8.8,15.3,17,22.4c8.1,7.1,17.9,12.4,29.5,16.1c11.5,3.8,24.7,5.6,39.8,5.6
	c13.3,0,25.5-1.3,36.9-3.9c11.4-2.6,24-7.3,38.1-13.9v-51.6c-16.5,10.8-33,16.3-49.6,16.3c-9.3,0-17.7-2.2-25-6.6
	c-5.5-3.2-9.2-7.5-11.2-12.9c-2-5.4-3-17.6-3-36.7v-84.3h77.9v-51.5h-78.1v-83.2L275,234.8L275,234.8z"/>
</svg>
