<?xml version="1.0" encoding="utf-8"?>
<!-- Generator: Adobe Illustrator 18.0.0, SVG Export Plug-In . SVG Version: 6.00 Build 0)  -->
<!DOCTYPE svg PUBLIC "-//W3C//DTD SVG 1.1//EN" "http://www.w3.org/Graphics/SVG/1.1/DTD/svg11.dtd">
<svg version="1.1" id="Layer_1" xmlns="http://www.w3.org/2000/svg" xmlns:xlink="http://www.w3.org/1999/xlink" x="0px" y="0px"
	 viewBox="0 0 512 512" enable-background="new 0 0 512 512" xml:space="preserve">
<path id="tumblr-circle-outline-icon" d="M256.4,50.5c54.9,0,106.5,21.4,145.3,60.2c38.8,38.8,60.2,90.4,60.2,145.3
	s-21.4,106.5-60.2,145.3c-38.8,38.8-90.4,60.2-145.3,60.2s-106.5-21.4-145.3-60.2C72.3,362.5,50.9,310.9,50.9,256
	s21.4-106.5,60.2-145.3C149.9,71.9,201.5,50.5,256.4,50.5 M256.4,1C115.6,1,1.4,115.2,1.4,256s114.2,255,255,255s255-114.2,255-255
	S397.3,1,256.4,1L256.4,1z M230.1,121.1c-1.8,14.2-4.9,25.8-9.6,35c-4.6,9.2-10.8,17-18.5,23.5c-7.7,6.5-16.9,11.6-27.6,15.1v39.1
	h30.1v96.3c0,12.5,1.3,22.1,3.9,28.7c2.6,6.6,7.4,12.8,14.2,18.7c6.8,5.9,15,10.4,24.7,13.5c9.6,3.2,20.7,4.7,33.3,4.7
	c11.1,0,21.3-1.1,30.9-3.3c9.5-2.2,20.1-6.1,31.9-11.6v-43.2c-13.8,9-27.6,13.6-41.5,13.6c-7.8,0-14.8-1.8-20.9-5.5
	c-4.6-2.7-7.7-6.3-9.4-10.8c-1.7-4.5-2.5-14.7-2.5-30.7v-70.5h65.2v-43.1H269v-69.6L230.1,121.1L230.1,121.1z"/>
</svg>
