<?xml version="1.0" encoding="utf-8"?>
<!-- Generator: Adobe Illustrator 18.0.0, SVG Export Plug-In . SVG Version: 6.00 Build 0)  -->
<!DOCTYPE svg PUBLIC "-//W3C//DTD SVG 1.1//EN" "http://www.w3.org/Graphics/SVG/1.1/DTD/svg11.dtd">
<svg version="1.1" id="Layer_1" xmlns="http://www.w3.org/2000/svg" xmlns:xlink="http://www.w3.org/1999/xlink" x="0px" y="0px"
	 viewBox="0 0 612 792" enable-background="new 0 0 612 792" xml:space="preserve">
<path id="twitter-5-icon" fill="#FFFFFF" d="M307.8,148.1c136,0,246.1,110.1,246.1,246.1S443.8,640.3,307.8,640.3
	S61.7,530.2,61.7,394.2C61.7,258.2,171.8,148.1,307.8,148.1 M307.8,88.8C139.1,88.8,2.4,225.5,2.4,394.2s136.7,305.4,305.4,305.4
	s305.4-136.7,305.4-305.4S476.5,88.8,307.8,88.8L307.8,88.8z M475,314.1c-11.5,5-23.7,8.5-36.6,10c13.1-7.9,23.3-20.4,28-35.3
	c-12.3,7.3-25.9,12.6-40.5,15.4c-11.6-12.4-28.2-20.1-46.5-20.1c-41.1,0-71.4,38.4-62.2,78.3c-53-2.6-99.9-28.1-131.4-66.6
	c-16.7,28.7-8.6,66.1,19.7,85.1c-10.4-0.4-20.3-3.2-28.9-8c-0.7,29.5,20.4,57.1,51.2,63.4c-9,2.4-18.8,3-28.8,1.1
	c8.1,25.3,31.7,43.7,59.5,44.2c-26.8,21-60.6,30.4-94.4,26.4c28.2,18,61.7,28.7,97.8,28.7c118.3,0,185.3-99.9,181.2-189.6
	C455.7,338.1,466.4,326.9,475,314.1z"/>
</svg>
