<?xml version="1.0" encoding="utf-8"?>
<!-- Generator: Adobe Illustrator 18.0.0, SVG Export Plug-In . SVG Version: 6.00 Build 0)  -->
<!DOCTYPE svg PUBLIC "-//W3C//DTD SVG 1.1//EN" "http://www.w3.org/Graphics/SVG/1.1/DTD/svg11.dtd">
<svg version="1.1" id="Layer_1" xmlns="http://www.w3.org/2000/svg" xmlns:xlink="http://www.w3.org/1999/xlink" x="0px" y="0px"
	 viewBox="0 0 612 792" enable-background="new 0 0 612 792" xml:space="preserve">
<path id="vimeo-circle-outline-icon" d="M306,150.4c65.6,0,127.3,25.6,173.7,72s72,108.1,72,173.7s-25.6,127.3-72,173.7
	c-46.4,46.4-108.1,72-173.7,72s-127.3-25.6-173.7-72c-46.4-46.4-72-108.1-72-173.7s25.6-127.3,72-173.7S240.4,150.4,306,150.4
	 M306,91.2C137.7,91.2,1.2,227.7,1.2,396S137.7,700.8,306,700.8S610.8,564.3,610.8,396S474.3,91.2,306,91.2L306,91.2z M465.6,338.9
	c-1.4,32-23.8,75.8-66.9,131.4c-44.7,58.1-82.5,87-113.3,87c-19.1,0-35.4-17.7-48.5-53.1c-8.8-32.4-17.7-64.8-26.5-97.2
	c-9.8-35.4-20.3-53.1-31.7-53.1c-2.5,0-11,5.1-25.8,15.4l-15.4-20c16.3-14.2,32.2-28.4,47.9-42.8c21.6-18.6,37.9-28.4,48.6-29.5
	c25.6-2.5,41.2,15.1,47.2,52.5c6.3,40.4,10.8,65.5,13.3,75.3c7.4,33.5,15.4,50.2,24.3,50.2c6.8,0,17.2-10.9,31-32.6
	c13.7-21.8,21.2-38.2,22.1-49.6c1.9-18.8-5.4-28.1-22.1-28.1c-7.9,0-16,1.8-24.3,5.4c16.1-52.8,47-78.5,92.5-77.1
	C451.6,274.2,467.5,296.1,465.6,338.9z"/>
</svg>
